<svg width="49" height="49" viewBox="0 0 49 49" fill="none" xmlns="http://www.w3.org/2000/svg">
<path d="M2 7C2 4.23858 4.23858 2 7 2H17V17H2V7Z" stroke="#FAFAFA" stroke-width="3"/>
<rect x="2" y="17" width="15" height="15" stroke="#FAFAFA" stroke-width="3"/>
<path d="M2 32H17V47H7C4.23858 47 2 44.7614 2 42V32Z" stroke="#FAFAFA" stroke-width="3"/>
<rect x="17" y="2" width="15" height="15" stroke="#FAFAFA" stroke-width="3"/>
<rect x="17" y="17" width="15" height="15" stroke="#FAFAFA" stroke-width="3"/>
<rect x="17" y="32" width="15" height="15" stroke="#FAFAFA" stroke-width="3"/>
<path d="M32 2H42C44.7614 2 47 4.23858 47 7V17H32V2Z" stroke="#FAFAFA" stroke-width="3"/>
<rect x="32" y="17" width="15" height="15" stroke="#FAFAFA" stroke-width="3"/>
<path d="M32 32H47V42C47 44.7614 44.7614 47 42 47H32V32Z" stroke="#FAFAFA" stroke-width="3"/>
<rect x="22" y="7" width="5" height="5" rx="2.5" fill="#5B8B32"/>
<rect x="37" y="7" width="5" height="5" rx="2.5" fill="#5B8B32"/>
<rect x="22" y="22" width="5" height="5" rx="2.5" fill="#D14852"/>
<rect x="22" y="37" width="5" height="5" rx="2.5" fill="#E5A92F"/>
<rect x="7" y="22" width="5" height="5" rx="2.5" fill="#5B8B32"/>
</svg>
